/* XPM */
static const char *aLoveSocket_xpm[] = {
/* width height num_colors chars_per_pixel */
"    32    32      256            2",
/* colors */
"`` c #040204",
"`. c #2482f4",
"`# c #9c9a9c",
"`a c #34424c",
"`b c #4c4a4c",
"`c c #9ccefc",
"`d c #44a6fc",
"`e c #1462e4",
"`f c #14222c",
"`g c #b4eafc",
"`h c #1c72ec",
"`i c #549ee4",
"`j c #74aadc",
"`k c #041224",
"`l c #0442d4",
"`m c #3496fc",
"`n c #b4daf4",
"`o c #143ea4",
"`p c #0c52dc",
"`q c #143664",
"`r c #8cbeec",
"`s c #d4fefc",
"`t c #3472c4",
"`u c #6cbafc",
"`v c #040224",
"`w c #3c82d4",
"`x c #acdefc",
"`y c #bcbabc",
"`z c #2c62bc",
"`A c #9cc6ec",
"`B c #c4f6fc",
"`C c #9cd6fc",
"`D c #242224",
"`E c #041244",
"`F c #4476b4",
"`G c #5ca6ec",
"`H c #2452b4",
"`I c #040a14",
"`J c #2c8efc",
"`K c #2c7adc",
"`L c #7cb2ec",
"`M c #1442ac",
"`N c #449efc",
"`O c #246ad4",
"`P c #c4eaf4",
"`Q c #141214",
"`R c #b4e2fc",
"`S c #8cc6fc",
"`T c #2c3a44",
"`U c #3c7acc",
"`V c #7cbefc",
"`W c #64b2fc",
"`X c #2c8af4",
"`Y c #6cb6fc",
"`Z c #145adc",
"`0 c #acd6f4",
"`1 c #242e2c",
"`2 c #247aec",
"`3 c #040214",
"`4 c #2c5a94",
"`5 c #4c5654",
"`6 c #acd2f4",
"`7 c #1c2a34",
"`8 c #bcf2fc",
".` c #0c4ad4",
".. c #3c9efc",
".# c #c4dedc",
".a c #94beec",
".b c #e4fafc",
".c c #3c72bc",
".d c #040a24",
".e c #3c8ee4",
".f c #2c6ac4",
".g c #a4caf4",
".h c #6c6a64",
".i c #5caefc",
".j c #1c6ae4",
".k c #141a14",
".l c #2c82f4",
".m c #3c4e4c",
".n c #a4cef4",
".o c #1c2624",
".p c #bceafc",
".q c #7ca2c4",
".r c #6caaec",
".s c #bcdefc",
".t c #243244",
".u c #9ccafc",
".v c #ccfefc",
".w c #2c5abc",
".x c #0c0a0c",
".y c #144edc",
".z c #44a2fc",
".A c #84c2fc",
".B c #2c7ef4",
".C c #346ac4",
".D c #747274",
".E c #141e24",
".F c #04060c",
".G c #94aaac",
".H c #3c4244",
".I c #54aafc",
".J c #1c62e4",
".K c #2476ec",
".L c #0c1a2c",
".M c #3c9afc",
".N c #b4defc",
".O c #1452dc",
".P c #8cc2fc",
".Q c #dcfafc",
".R c #74bafc",
".S c #040234",
".T c #448ad4",
".U c #ace6fc",
".V c #9ccaf4",
".W c #ccfafc",
".X c #a4d6fc",
".Y c #242624",
".Z c #041e3c",
".0 c #5caafc",
".1 c #3492fc",
".2 c #84b6e4",
".3 c #1c4aac",
".4 c #c4f2fc",
".5 c #c4e6f4",
".6 c #94c6fc",
".7 c #3c3a3c",
".8 c #84baec",
"#` c #145ee4",
"#. c #6496e4",
"## c #445254",
"#a c #545e5c",
"#b c #243a4c",
"#c c #041e54",
"#d c #1c3654",
"#e c #2c2a2c",
"#f c #74aeec",
"#g c #0c46d4",
"#h c #4486d4",
"#i c #4c9afc",
"#j c #3c76cc",
"#k c #94aebc",
"#l c #84befc",
"#m c #64a6e4",
"#n c #74b6f4",
"#o c #1c1a1c",
"#p c #4ca6fc",
"#q c #2c6ad4",
"#r c #64aefc",
"#s c #1c2634",
"#t c #4ca2fc",
"#u c #ccf2fc",
"#v c #3476cc",
"#w c #04062c",
"#x c #040e0c",
"#y c #3c7ed4",
"#z c #acdafc",
"#A c #247ef4",
"#B c #0c4edc",
"#C c #3c92ec",
"#D c #6c6e6c",
"#E c #1c6eec",
"#F c #2c86f4",
"#G c #a4d2fc",
"#H c #6caef4",
"#I c #34464c",
"#J c #9cd2fc",
"#K c #14262c",
"#L c #b4eefc",
"#M c #1c76ec",
"#N c #041624",
"#O c #349afc",
"#P c #ace2fc",
"#Q c #c4fafc",
"#R c #2456b4",
"#S c #2c92fc",
"#T c #b4e6fc",
"#U c #2c3e44",
"#V c #64b6fc",
"#W c #3ca2fc",
"#X c #94c2ec",
"#Y c #e4fefc",
"#Z c #3c76bc",
"#0 c #040e24",
"#1 c #bceefc",
"#2 c #2c5ebc",
"#3 c #0c0e0c",
"#4 c #1c66e4",
"#5 c #1456dc",
"#6 c #dcfefc",
"#7 c #74befc",
"#8 c #a4dafc",
"a` c #1c4eac",
"a. c #94cafc",
"a# c #04020c",
"aa c #b4dafc",
"ab c #8cbef4",
"ac c #9cc6f4",
"ad c #2c7ae4",
"ae c #246adc",
"af c #2c8afc",
"ag c #145ae4",
"ah c #acd6fc",
"ai c #242e34",
"aj c #247af4",
"ak c #04021c",
"al c #4c565c",
"am c #0c4adc",
"an c #2c6acc",
"ao c #6c6a6c",
"ap c #1c6aec",
"aq c #7ca2cc",
"ar c #141e2c",
"as c #24262c",
"at c #84b6ec",
"au c #2c86fc",
"av c #000000",
"aw c #000000",
"ax c #000000",
"ay c #000000",
"az c #000000",
"aA c #000000",
"aB c #000000",
"aC c #000000",
"aD c #000000",
"aE c #000000",
"aF c #000000",
"aG c #000000",
"aH c #000000",
"aI c #000000",
"aJ c #000000",
"aK c #000000",
"aL c #000000",
"aM c #000000",
"aN c #000000",
"aO c #000000",
"aP c #000000",
"aQ c #000000",
"aR c #000000",
"aS c #000000",
"aT c #000000",
"aU c #000000",
"aV c #000000",
"aW c #000000",
"aX c #000000",
"aY c #000000",
"aZ c #000000",
"a0 c #000000",
"a1 c #000000",
"a2 c #000000",
"a3 c #000000",
"a4 c #000000",
"a5 c #000000",
"a6 c #000000",
"a7 c #000000",
"a8 c #000000",
/* pixels */
"````````````````````````````````````````````````````````````````",
"``````````````````````````````````````.Y`D``````````````````````",
"````````````````````````````````````.Y.Y`y``````````````````````",
"```I#w`I#0#0#N#N#N.L`f`f.o`7`7`1`7#e#e#aal`5`5##.m.m.m#I#U#U#b``",
"``.T#S#W#t.i`Y.R`S`c#G.X#z`R`R.paa.Y`a#Y#Y#6`s`s`s.v.W.4#1#T`n``",
"``.T`m.M`d.0`Y.R.Pa.#J.Xah`x.N.N`D.o#Y#Y#6#6#6`s`s.v#Q.4#1#T`n``",
"``#h#S...z.I`W.R.Aa.#J.X.X#z#z`n`D#Y#Y#6#6#6`s`s.v.v#Q`8.p.U`n``",
"``#h#S.M.z.I`W`Y`V.a.u`c#G.X.X.E`1#Y#6#6#6.Q`s`s`s.v#Q#1`g`R#z``",
"```w.1#O#O#t.i#r.R`Q`Aa.`c#J`6#o.Q#6#6#6#Y`Q`s`s.v#Q`B#1`g`x`n``",
"```w`J`m#O.z.I.i`Y.x.a.Aa..u#b#N#6#6`s`s.b`Q`s.v.v#Q.4`g#T`x`6``",
"``#y`X#S`m...z.I#r.xat`V#l.P`Q.##6`s`s`s.Q#3`s.v.W`B#1#T#P#z#G``",
"``#y`X`J#S#O`N#t.0`j#n`Y.Raq#3`s`s`s`s`s`s.Q.v.v`8`8.p#P`x.X.n``",
"```U.l`X`J.1#O#W#t#p.i`W`W`k#3`s`s.v`s.v.v.v#Q`B`8`g#T`x#z`C.g``",
"``#v`.#Faf#S`m#O..#p#p.I.i`I#x.v.v.v.v.v.W#Q`B#1.p#T#P#8.X`c.V``",
"```t#A.l#Faf`J.1#O.M...z#ta#.G`B#Q#Q.W`B`B.4#1#T#T`x#z.X#J.uac``",
"```t`2#A`.#F`J`J.1`m#O..#Wa#.4.4`B.4`8`8#1.p`g`R#P`x.X#J`ca.#X``",
"``.C`h`2`2`.#F`X`J#S.1#S#C``#k.p.5`P.5.p#T.U.N`x#8.X#J.ua..Pab``",
"```z`h.Kaj#A#A.l#F`X`J`J.e````````````#P`x`x`x.X`C.n`c.6`S.A`r``",
"```z#E#E`h.K`2#A`.`.au#F`X`X`X`X`X#w``#z#8.X.X#J`ca.`S`S.A`Vat``",
"``#2#4.j#E.K.K`K.B.B`..l`.au`.au`.`3a#.X#G#J`c`cac.6.P.A`V`V`L``",
"``#R`e#4.jap#c``ak#vad`2#A#A#A#A#A``a#a.`c.u.qa#``ak`V`V`V#n`L``",
"``#R#`.J`e#4`O`E`````3ak`q`4.c`F.c````.ta#a#````.Z.8`V.R#n#V#f``",
"```H#5`Z#``e.J`eae.f`Eak`````````````````3#d.8#l`V.R.R`Y`Y#r.r``",
"``.3`p#5`Zag`e.J`e`e#4ap.j.j`Oan`z``a#`V`V`V`V.R.R`Y`Y`Y.i.i#m``",
"``.3am#B`p#5`Z`Z#`.J`e`e.J`e#4`e`e``a#.R#7.R.R`Y`Y`W`W.i.i.I`G``",
"```o`l.`am`p.O`p#5#5`Z`Z#`#`#`#`#``3```Y`Y`Y`W`W#r.i.i.I.I#t`i``",
"```o`l`l#g.`am`p`p`p#5`p#5#5#5#5#5`v``#H#r#r.i.i.0.I.I#p#t#t`i``",
"``#.#i#i#i#i#i#i#i#i#i#i#i#i#i#i#i#Z```n`x`x`x`x`x`x`x`x`x`x#z``",
"``#D.hao.hao.h.h.hao.h.h.h.h.h.h.h.h``.Faoaoaoaoaoaoaoaoaoao#D``",
"````````````````````````````````````.7``````````````````````````",
"````````````````````````````````````````.H``````````````````````",
"```````````````````````````````````````#````````````````````````"
};
