/* XPM */
static const char *iConnecting_xpm[] = {
/* width height num_colors chars_per_pixel */
"    32    32      256            2",
/* colors */
"`` c #040604",
"`. c #ac8204",
"`# c #dcc204",
"`a c #c49604",
"`b c #c4c2c4",
"`c c #444244",
"`d c #848284",
"`e c #7c5604",
"`f c #ece204",
"`g c #e4e2dc",
"`h c #9c823c",
"`i c #c4ae5c",
"`j c #946e04",
"`k c #ccae04",
"`l c #3c0e04",
"`m c #b49204",
"`n c #dcc26c",
"`o c #fcf204",
"`p c #ecd204",
"`q c #9c6e04",
"`r c #d4d2c4",
"`s c #ac8224",
"`t c #aca284",
"`u c #f4f2e4",
"`v c #1c1a1c",
"`w c #745e24",
"`x c #f4e22c",
"`y c #ccaa4c",
"`z c #846204",
"`A c #ecba04",
"`B c #ac8a0c",
"`C c #c4a204",
"`D c #a47a04",
"`E c #e4daac",
"`F c #644a04",
"`G c #bc9a34",
"`H c #d4ae2c",
"`I c #ecda04",
"`J c #bcb29c",
"`K c #f4ca04",
"`L c #1c0204",
"`M c #eceaec",
"`N c #dcba04",
"`O c #f4fafc",
"`P c #7c6a3c",
"`Q c #bc8604",
"`R c #fcea04",
"`S c #7c7254",
"`T c #fcf21c",
"`U c #9c7604",
"`V c #b48204",
"`W c #d4cab4",
"`X c #ac9a6c",
"`Y c #c4b694",
"`Z c #dcb604",
"`0 c #343234",
"`1 c #dcdadc",
"`2 c #242624",
"`3 c #946a14",
"`4 c #745204",
"`5 c #ecca04",
"`6 c #d49e04",
"`7 c #b48e34",
"`8 c #ccae1c",
".` c #ac8a1c",
".. c #f4f2f4",
".# c #8c6a0c",
".a c #b4b2b4",
".b c #c49a24",
".c c #fce204",
".d c #e4e2e4",
".e c #9c8a4c",
".f c #d4ba64",
".g c #fcfa04",
".h c #fcd20c",
".i c #a47204",
".j c #dcd2cc",
".k c #fcea24",
".l c #d4a604",
".m c #fcda04",
".n c #947a44",
".o c #bcbabc",
".p c #141214",
".q c #ac8214",
".r c #ecc61c",
".s c #c49e04",
".t c #cccac4",
".u c #bc9a04",
".v c #f4d624",
".w c #9c7214",
".x c #aca69c",
".y c #6c6a6c",
".z c #8c6204",
".A c #e4decc",
".B c #744e04",
".C c #ac965c",
".D c #2c0604",
".E c #b48a1c",
".F c #bcb6b4",
".G c #e4c21c",
".H c #545654",
".I c #8c8a8c",
".J c #845e04",
".K c #d4ae04",
".L c #3c2204",
".M c #fcf604",
".N c #f4d604",
".O c #9c7204",
".P c #2c1a04",
".Q c #bc8a04",
".R c #ccaa04",
".S c #ac7a04",
".T c #6c4a04",
".U c #bc9e44",
".V c #f4da04",
".W c #fcce0c",
".X c #f4eeec",
".Y c #8c7234",
".Z c #a49e7c",
".0 c #4c321c",
".1 c #2c2e2c",
".2 c #fcf6f4",
".3 c #ece6ec",
".4 c #dcbe64",
".5 c #b48e2c",
".6 c #140204",
".7 c #ac8604",
".8 c #e4c204",
"#` c #cc9a04",
"#. c #5c3a04",
"## c #94866c",
"#a c #8c6a24",
"#b c #6c5624",
"#c c #ccae4c",
"#d c #fcca1c",
"#e c #242224",
"#f c #747274",
"#g c #948254",
"#h c #240a04",
"#i c #acaeac",
"#j c #74623c",
"#k c #fce21c",
"#l c #846e44",
"#m c #a48e5c",
"#n c #3c1604",
"#o c #bc9a1c",
"#p c #0c0a0c",
"#q c #fcf6ec",
"#r c #dcceb4",
"#s c #2c2a2c",
"#t c #d4b214",
"#u c #5c5a5c",
"#v c #f4e204",
"#w c #947214",
"#x c #bc9204",
"#y c #d4d6d4",
"#z c #cca204",
"#A c #ecdaac",
"#B c #fcc604",
"#C c #fcfafc",
"#D c #9c8e5c",
"#E c #d4be74",
"#F c #dcd6d4",
"#G c #dca204",
"#H c #acaaac",
"#I c #8c6614",
"#J c #ece2d4",
"#K c #ccae54",
"#L c #b4a27c",
"#M c #b48a04",
"#N c #a47604",
"#O c #ac9e84",
"#P c #f4ba04",
"#Q c #240204",
"#R c #442204",
"#S c #7c5a04",
"#T c #bc9e34",
"#U c #eceeec",
"#V c #fcee04",
"#W c #fcf61c",
"#X c #b48604",
"#Y c #d4cebc",
"#Z c #ac9e74",
"#0 c #c4ba9c",
"#1 c #b4b6b4",
"#2 c #fce604",
"#3 c #e4e6e6",
"#4 c #dcd6c4",
"#5 c #fcee1f",
"#6 c #cccecc",
"#7 c #b48e1d",
"#8 c #d4b205",
"a` c #f4de07",
"a. c #e4c60c",
"a# c #c49a04",
"aa c #c4c6c4",
"ab c #444644",
"ac c #ecd604",
"ad c #ac8624",
"ae c #1c1e1c",
"af c #a47e04",
"ag c #dcbe04",
"ah c #343634",
"ai c #dcdedc",
"aj c #745604",
"ak c #ecce04",
"al c #f4f6f4",
"am c #d4be64",
"an c #fcde04",
"ao c #947e44",
"ap c #141614",
"aq c #ac8614",
"ar c #6c6e6c",
"as c #8c6604",
"at c #2c0a04",
"au c #8c8e8c",
"av c #bc8e04",
"aw c #ac7e04",
"ax c #6c4e04",
"ay c #fce61c",
"az c #847244",
"aA c #f4e604",
"aB c #bc9604",
"aC c #cca604",
"aD c #ecdeac",
"aE c #fcfefc",
"aF c #7c560c",
"aG c #9c8244",
"aH c #946e0c",
"aI c #fcf20c",
"aJ c #9c6e0c",
"aK c #d4d2cc",
"aL c #f4f2ec",
"aM c #84620c",
"aN c #644a0c",
"aO c #fcf224",
"aP c #9c760c",
"aQ c #24262c",
"aR c #8c6a14",
"aS c #fce20c",
"aT c #fcfa0c",
"aU c #c49e0c",
"aV c #cccacc",
"aW c #e4ded4",
"aX c #bcb6bc",
"aY c #fcf60c",
"aZ c #f4d60c",
"a0 c #9c720c",
"a1 c #fcf6fc",
"a2 c #ac860c",
"a3 c #d4b21c",
"a4 c #bc9e3c",
"a5 c #eceef4",
"a6 c #fcee0c",
"a7 c #b4860c",
"a8 c #b4b6bc",
/* pixels */
"aEaEaEaEaEaEaEaEaEaEaEaE#6#1aEaEaEaEaEaEaEaEaEaEaEaEaEaEaEaEaEaE",
"aEaEaEaEaEaEaEaEaEaEaEaE.p.1aaaEaEaEaEaE#eabaEaEaEaEaEaEaEaEaEaE",
"aEaEaEaEaEaEaEaEaEaEaEaEaE#s#CaEaEaEaE#e#p`0aEaEaEaEaEaEaEaEaEaE",
"aEaEaEaEaEaEaEaEaEaEaEaEaEaE.p#CaEaE`calaEaEaEaEaEaEaEaEaEaEaEaE",
"aEaEaEaEaEaEaEaEaEaEaE#Ca1aE`var.yab#p#C#CaEaEaEaEaEaEaEaEaEaEaE",
"aEaEaEaEaEaEaEaEaEa1.daeaeaeap.p.p.p`vae`v`balaEaEaEaEaEaEaEaEaE",
"aEaEaEaEaEaEaE#C#Caeae.Ial`M`M#3`M#3`Mal#i`vae`M#CaEaEaEaEaEaEaE",
"aEaEaEaEaEaEal#sae.H.daiaiai.dai`gai.daiaiaiau#eaealaEaEaEaEaEaE",
"aEaEaEaEaE#C#f#e#s#y#y#F#y#F#y`1#y`1#y#F#y#F#y#u#eaha1aEaEaEaEaE",
"aEaEaEaE#C#H#eabaaaVaaaVaVaaaVaVaVaaaVaaaVaaaaaa`d`2#u#CaEaEaEaE",
"aEaEaE#C.2aQ.1#1a8#1aXa8.o.oa8#1.o.oa8.o.o.oa8aX.a#saQ#Ua1aEaEaE",
"aEaEaEaL#l.naG#A#AaDaDaD`EaDaDaD`EaDaD`EaDaD`E#A`E.eaG`PalaEaEaE",
"aEaE#C#Y`Faj#S.fam.f.4am.4.4am#E`nam.4am.4am.4am.4`z`L.L###CaEaE",
"aEaEalaN.B#S.J`y`y#c`y#c`y`y#c`i#c#c`y#c`y`y`y`y`yaj.6.6.P.XaEaE",
"aEaE.X`F`e.Jas`G`G#o#T#o#T#T#Ta4#T#T#T#o#T#T#o`G#T.T.6.6.6.X#CaE",
"aE#C.A`4#Sas`ja0#7.`#7#7.`#7#7.5#7#7#7#7#7#7#7`B`qaR.6.6.6.x.2aE",
"aEa1`taj.J#I.6.6#h`.aqa2`Ba2a2ad.`a2`B`Ba2a2a2`U`U.O.6.6.6`SalaE",
"aEal#j#S.z.6`L.6.6#R`..7.7`..7`Ba2.7`V.7`..7`.awaf`D.T.6.6#b..aE",
"aE..#j.J`j.6.6`L`L`LaB`a.u`aaB.baUa#.ua#aBaB#x`m#M.7`D`q.z`w..aE",
"aEal.Z.z`U`L`L`L.6`L`k.K#8`k#8#t#8`k#8`k`k.RaC.saBav`..Oas`SaLaE",
"aEal.jas.O.6`L`L`L#Qag`#.8a.`#.Ga..8a..8`#`N`Z.RaC.u`.`Uas#OaLaE",
"aE#C`gas#N#.`L`L#Q#.`p.Vac.Nac.v.V`I.NacaJ#Q#Qat#t.s#M.Oas#JalaE",
"aEaE.3#I#N#xas.D`ea`#2aA`R`RaAaya6`R#2`l#Q#Q#Q`L#Q`C#M.O.z`g#CaE",
"aEaEaL`J.iavaC.8`p#v`R`o#V`o`o#5aI`o#5#Q#Q#Q#Q`L`La#`V`j#g#UaEaE",
"aEaEalaW#w`Q#zagaka`#V`o`o.M`o`TaY`o#k#Q#Q#Q#Q`L#Q#x.S.#aW..aEaE",
"aEaEaE`M.Aaw`a.K`#acaA#V.M.M.M`TaT.M.k#Q#Q#Q`L`L`s#X.O`W`M#CaEaE",
"aEaEaE#C#3.C.Q#n.D`8.V#V#V.M.g`TaT.M#V#R#Q`L`L.bav#N.Y`galaEaEaE",
"aEaEaEaEal.dao#Q`L#Q.DaA#V`o.M#WaT.M#V`faZ.raCavaw#aaialaEaEaEaE",
"aEaEaEaEaE.X#y.0`L#Q#Q`Han`R#V#5a6#V.c.Na.`Za#`V.##y#U#CaEaEaEaE",
"aEaEaEaEaE#C..#y.j`L#Q#Q.h.m.c#kaSan.N`5`A`6aw#0#F#U#CaEaEaEaEaE",
"aEaEaEaEaEaEaE...3#y`J.E`6#P#B#d.W#B`A#Ga7`X`r#3a5aEaEaEaEaEaEaE",
"aEaEaEaEaEaEaEaEaEaL#3#yaK#r#L#D#m`X`W#Y#y.da5#CaEaEaEaEaEaEaEaE"
};
