/* XPM */
static const char *iConnect_xpm[] = {
/* width height num_colors chars_per_pixel */
"    32    32      256            2",
/* colors */
"`` c #040604",
"`. c #848284",
"`# c #840604",
"`a c #944644",
"`b c #c41214",
"`c c #444244",
"`d c #c4c2c4",
"`e c #440204",
"`f c #9c2624",
"`g c #e4e2e4",
"`h c #a40e0c",
"`i c #e4161c",
"`j c #5c2224",
"`k c #b48284",
"`l c #e4c2c4",
"`m c #6c0204",
"`n c #1c1e1c",
"`o c #841614",
"`p c #e42224",
"`q c #d4d2d4",
"`r c #9c6664",
"`s c #d42224",
"`t c #f4f2f4",
"`u c #a41e1c",
"`v c #bca6a4",
"`w c #240204",
"`x c #940e0c",
"`y c #d41614",
"`z c #640e0c",
"`A c #cca6a4",
"`B c #f41a1c",
"`C c #643234",
"`D c #6c6a6c",
"`E c #dcc2c4",
"`F c #f4eaec",
"`G c #b41214",
"`H c #acaaac",
"`I c #c41e1c",
"`J c #541e1c",
"`K c #d46e6c",
"`L c #141214",
"`M c #ac4644",
"`N c #540204",
"`O c #b43e3c",
"`P c #2c2e2c",
"`Q c #f42224",
"`R c #dcdadc",
"`S c #9c0e0c",
"`T c #740e0c",
"`U c #743234",
"`V c #a48284",
"`W c #840e0c",
"`X c #7c4644",
"`Y c #e4dadc",
"`Z c #740a0c",
"`0 c #941a1c",
"`1 c #fcfaf4",
"`2 c #b41a1c",
"`3 c #3c1214",
"`4 c #d4aeac",
"`5 c #cc1214",
"`6 c #eceaec",
"`7 c #a41614",
"`8 c #e41e1c",
".` c #dcd2d4",
".. c #b4b6b4",
".# c #340204",
".a c #dc1614",
".b c #fc1a1c",
".c c #d4cacc",
".d c #540e0c",
".e c #7c1614",
".f c #140204",
".g c #545654",
".h c #cccacc",
".i c #9c3234",
".j c #ac1214",
".k c #640a0c",
".l c #242624",
".m c #b47674",
".n c #dca2a4",
".o c #fceeec",
".p c #bc1214",
".q c #cc7674",
".r c #bc5a5c",
".s c #fc221c",
".t c #9c120c",
".u c #7c0e0c",
".v c #7c3a3c",
".w c #8c0e0c",
".x c #94221c",
".y c #bcb6bc",
".z c #dc1a14",
".A c #8c8a8c",
".B c #8c5a5c",
".C c #c41614",
".D c #ece2e4",
".E c #a41214",
".F c #ec1a1c",
".G c #742224",
".H c #b4969c",
".I c #e4cecc",
".J c #ec2224",
".K c #fcf2f4",
".L c #ac1e1c",
".M c #941214",
".N c #6c3a3c",
".O c #747274",
".P c #f4eeec",
".Q c #cc1a1c",
".R c #d4726c",
".S c #1c1a1c",
".T c #5c0204",
".U c #b44244",
".V c #343634",
".W c #7c3634",
".X c #ac8a8c",
".Y c #f4dedc",
".Z c #fcfefc",
".0 c #b42224",
".1 c #dcd6d4",
".2 c #3c0204",
".3 c #fc1e1c",
".4 c #dccecc",
".5 c #dca6a4",
".6 c #c45654",
".7 c #0c0a0c",
".8 c #840a0c",
"#` c #444644",
"#. c #9c6264",
"## c #642e2c",
"#a c #ac2a2c",
"#b c #bc8a8c",
"#c c #946e6c",
"#d c #744e4c",
"#e c #ac7e7c",
"#f c #dc2a24",
"#g c #242224",
"#h c #8c1a1c",
"#i c #343234",
"#j c #9c1614",
"#k c #bc1e24",
"#l c #5c5a5c",
"#m c #a42e2c",
"#n c #2c2a2c",
"#o c #dcaaac",
"#p c #5c0a0c",
"#q c #9c1e1c",
"#r c #4c0204",
"#s c #2c0204",
"#t c #6c0e0c",
"#u c #ecdadc",
"#v c #7c0a0c",
"#w c #ec1e1c",
"#x c #1c0204",
"#y c #6c0a0c",
"#z c #e4c6cc",
"#A c #a42224",
"#B c #741214",
"#C c #841214",
"#D c #7c1214",
"#E c #8c1214",
"#F c #c45a5c",
"#G c #c4c6c4",
"#H c #e4e6e4",
"#I c #e41a1c",
"#J c #6c0604",
"#K c #d4d6d4",
"#L c #f4f6f4",
"#M c #f41e1c",
"#N c #643634",
"#O c #6c6e6c",
"#P c #dcc6c4",
"#Q c #b41614",
"#R c #acaeac",
"#S c #141614",
"#T c #f42624",
"#U c #dcdedc",
"#V c #743634",
"#W c #cc1614",
"#X c #eceeec",
"#Y c #340604",
"#Z c #d4cecc",
"#0 c #cccecc",
"#1 c #bc1614",
"#2 c #bcbabc",
"#3 c #8c8e8c",
"#4 c #ec2624",
"#5 c #cc1e1c",
"#6 c #5c0604",
"#7 c #ac8e8c",
"#8 c #a40e14",
"a` c #940e14",
"a. c #b43e44",
"a# c #9c0e14",
"aa c #fcfafc",
"ab c #b4b6bc",
"ac c #dc161c",
"ad c #fc2224",
"ae c #9c1214",
"af c #dc1a1c",
"ag c #c4161c",
"ah c #f4eef4",
"ai c #d47274",
"aj c #dcd6dc",
"ak c #fc1e24",
"al c #dca6ac",
"am c #000000",
"an c #000000",
"ao c #000000",
"ap c #000000",
"aq c #000000",
"ar c #000000",
"as c #000000",
"at c #000000",
"au c #000000",
"av c #000000",
"aw c #000000",
"ax c #000000",
"ay c #000000",
"az c #000000",
"aA c #000000",
"aB c #000000",
"aC c #000000",
"aD c #000000",
"aE c #000000",
"aF c #000000",
"aG c #000000",
"aH c #000000",
"aI c #000000",
"aJ c #000000",
"aK c #000000",
"aL c #000000",
"aM c #000000",
"aN c #000000",
"aO c #000000",
"aP c #000000",
"aQ c #000000",
"aR c #000000",
"aS c #000000",
"aT c #000000",
"aU c #000000",
"aV c #000000",
"aW c #000000",
"aX c #000000",
"aY c #000000",
"aZ c #000000",
"a0 c #000000",
"a1 c #000000",
"a2 c #000000",
"a3 c #000000",
"a4 c #000000",
"a5 c #000000",
"a6 c #000000",
"a7 c #000000",
"a8 c #000000",
/* pixels */
".Z.Z.Z.Z.Z.Z.Z.Z.Z.Z.Z.Z#0...Z.Z.Z.Z.Z.Z.Z.Z.Z.Z.Z.Z.Z.Z.Z.Z.Z.Z",
".Z.Z.Z.Z.Z.Z.Z.Z.Z.Z.Z.Z`L`P#G.Z.Z.Z.Z.Z#g#`.Z.Z.Z.Z.Z.Z.Z.Z.Z.Z",
".Z.Z.Z.Z.Z.Z.Z.Z.Z.Z.Z.Z.Z#naa.Z.Z.Z.Z#g.7#i.Z.Z.Z.Z.Z.Z.Z.Z.Z.Z",
".Z.Z.Z.Z.Z.Z.Z.Z.Z.Z.Z.Z.Z.Z`Laa.Z.Z`c#L.Z.Z.Z.Z.Z.Z.Z.Z.Z.Z.Z.Z",
".Z.Z.Z.Z.Z.Z.Z.Z.Z.Z.Zaaaa.Z.S#O`D`c.7aaaa.Z.Z.Z.Z.Z.Z.Z.Z.Z.Z.Z",
".Z.Z.Z.Z.Z.Z.Z.Z.Zaa`g.S`n.S#S`L`L`L.S`n.S`d#L.Z.Z.Z.Z.Z.Z.Z.Z.Z",
".Z.Z.Z.Z.Z.Z.Zaaaa`n`n.A#L`6`6#H`6`6#H#L#R.S`n`6aa.Z.Z.Z.Z.Z.Z.Z",
".Z.Z.Z.Z.Z.Z#L#n`n.g`g#U#U`g#U`g#U`g#U#U#U#U#3#g`n#L.Z.Z.Z.Z.Z.Z",
".Z.Z.Z.Z.Zaa.O#g#n`q`qaj#K#K`R#K`R#K`R#K`R#K#K#l#g.Vaa.Z.Z.Z.Z.Z",
".Z.Z.Z.Zaa`H.l`c#G#G.h#G.h.h#G.h.h#G.h.h#G.h#G`d`..l#laa.Z.Z.Z.Z",
".Z.Z.Zaa#L.l`Pab.y..#2...y..#2..#2..#2..#2ab.y..ab#n.l`6aa.Z.Z.Z",
".Z.Z.Z`t`C.W.W.n.n.n.5al#o.5.5#o.5.5#o.5al.5.nal`A.v.W##.K.Z.Z.Z",
".Z.Zaa#P#p#y`m`K.q`K`K`K`K`K`K.q.q`K`K`K`K`K`K`K`K#D`w.##caa.Z.Z",
".Z.Z`t.d.k`Z#v.r.6.6.6.6.6.6.6.r.6.6.6.6.6.6.6.6.6.k.f.f#s.P.Z.Z",
".Z.Z`F.k#y.u`W`O`Oa.`Oa.`Oa.a.`Ma.a.a.`Oa.a.a.a.a..k.f.f.f.oaa.Z",
".Zaa#u#y`Z#v.w#C#a#a#a#A#a#a#a.i#a#a#a#a#a#a#a#a.w#D.f.f.f.H#L.Z",
".Zaa.X#y`T#D.f.f.##q`u`u`u`u`7`f`u`u`u`u`u`u`u`x`x#E.f.f.f#d#L.Z",
".Z#L#N`T#v#x#x.f.f`e#8#8#8#8#8`0ae#8`h`h#8`ha#`Sa#.t.k.f.f`J`t.Z",
".Z`t.N`T`W#x.f.f.f`w#Q#Q`G#1`G.L#Q#1`G`G`G`G.j#Q.E.E`x.w.u`jah.Z",
".Z#L`V.8#E#x#x#x#x#x`5#W`5#W`5#k.Q#W#W#W#W.C`b#1`G.j`h.w`W`X`t.Z",
".Z#L.I#v`x#x.f#x#x`w.a.aaf.aac#5af.aacacac`y`y`b`b`G`h`x#v.X`t.Z",
".Zaa#u`W`x#6#x#x`w`m.F.F.F.F`B`p#w.F#M.F#E#s`w.2`I.p.j`x.8#u`1.Z",
".Z.Z#H#Ba``G`W.2`#.F.b#M.3`B.3#4#M.3#M#r`w`w`w#x.#.C.j`x.u`gaa.Z",
".Z.Z`t`A.M`G#W.a.F#M.b.3.3.3.3#T.s.3#4`w`w`w`w#x#s.p`h.w.B#X.Z.Z",
".Z.Z#L`Y.e`G`b.a#I#M#M.3.3.3.3`Qad.3#f#s`w`w`w#x#s`G.t.u#u`t.Z.Z",
".Z.Z.Z`6#u`S.p`yac.F#M.bak.3ak`Qad.3#4`w`w`w#x`w#h.j.w`l#H.Z.Z.Z",
".Z.Z.Zaa#H.m.j`N`e#k#w.3.3.3.3`Q.sak.3.T`w`w`w`u`G`S.W`g#L.Z.Z.Z",
".Z.Z.Z.Z#L`g`a#x#x`w`e#M#Mak.3adad.3#M`B`8`s`5`G`S.G`R#L.Z.Z.Z.Z",
".Z.Z.Z.Z.Zah`q`3#x`w`w.0.b.bak`Qad.b#M`B#I`y`b.E#D.`#Xaa.Z.Z.Z.Z",
".Z.Z.Z.Z.Zaa.P`R.c#x`w.2`B.3.3`Q.s.b`B.F`i#W`S`4.1#Xaa.Z.Z.Z.Z.Z",
".Z.Z.Z.Z.Z.Z.Z`t.D#K`v`0.C.F`B.J#M`B#I#W.t#e#Z#H`taa.Z.Z.Z.Z.Z.Z",
".Z.Z.Z.Z.Z.Z.Z.Z.Z`t#H`R#Z#z#b#.#.`k`E.4#K`g`t#L.Z.Z.Z.Z.Z.Z.Z.Z"
};
