/* XPM */
static const char *iConnected_xpm[] = {
/* width height num_colors chars_per_pixel */
"    32    32      256            2",
/* colors */
"`` c #040604",
"`. c #34820c",
"`# c #a4aa9c",
"`a c #54c214",
"`b c #6c8a5c",
"`c c #2c4a04",
"`d c #64e614",
"`e c #44a20c",
"`f c #c4d6b4",
"`g c #6cf61c",
"`h c #2c620c",
"`i c #0c1e04",
"`j c #eceeec",
"`k c #7cc254",
"`l c #4cb214",
"`m c #548214",
"`n c #546e3c",
"`o c #8cf234",
"`p c #5cd214",
"`q c #dcdadc",
"`r c #3c920c",
"`s c #6cb63c",
"`t c #54a22c",
"`u c #acc29c",
"`v c #1c0204",
"`w c #34720c",
"`x c #6cfa1c",
"`y c #242224",
"`z c #0c0e04",
"`A c #74c22c",
"`B c #8ce63c",
"`C c #fcfaf4",
"`D c #dce6d4",
"`E c #7caa6c",
"`F c #64ea1c",
"`G c #44aa14",
"`H c #3c9a0c",
"`I c #c4c2c4",
"`J c #3c8a0c",
"`K c #54ca14",
"`L c #c4e2ac",
"`M c #4c6a3c",
"`N c #5cb624",
"`O c #6cda2c",
"`P c #54aa2c",
"`Q c #7cfa1c",
"`R c #2c2e2c",
"`S c #acb69c",
"`T c #6c9654",
"`U c #444244",
"`V c #3c622c",
"`W c #fcf6fc",
"`X c #94d26c",
"`Y c #6c6a6c",
"`Z c #347a0c",
"`0 c #4ca21c",
"`1 c #7cf21c",
"`2 c #f4f6ec",
"`3 c #5c962c",
"`4 c #84fa24",
"`5 c #8ca284",
"`6 c #74ea1c",
"`7 c #c4d2b4",
"`8 c #447e0c",
".` c #140204",
".. c #2c6a0c",
".# c #0c2a04",
".a c #54ba14",
".b c #64da14",
".c c #5ca234",
".d c #141604",
".e c #ece6e4",
".f c #449a0c",
".g c #448a14",
".h c #64ca24",
".i c #74f21c",
".j c #547644",
".k c #dce2d4",
".l c #1c1a1c",
".m c #2c2a2c",
".n c #cce2b4",
".o c #7cfa2c",
".p c #bcb6bc",
".q c #84fa2c",
".r c #8cae7c",
".s c #0c0604",
".t c #848284",
".u c #245a0c",
".v c #44a60c",
".w c #d4d6d4",
".x c #f4f2ec",
".y c #84c264",
".z c #54863c",
".A c #449214",
".B c #7cbe34",
".C c #2c0204",
".D c #74fa1c",
".E c #2c2624",
".F c #e4e6dc",
".G c #5cca14",
".H c #7cfe1c",
".I c #34361c",
".J c #7c9274",
".K c #545654",
".L c #94d66c",
".M c #3c7a14",
".N c #74ee2c",
".O c #d4d2cc",
".P c #346e04",
".Q c #64de14",
".R c #449e0c",
".S c #74f62c",
".T c #94aa84",
".U c #44821c",
".V c #acaaac",
".W c #5cc614",
".X c #6ce21c",
".Y c #ccdac4",
".Z c #1c1e1c",
".0 c #54b614",
".1 c #3c960c",
".2 c #6cb24c",
".3 c #54a624",
".4 c #9cd27c",
".5 c #240204",
".6 c #242624",
".7 c #041604",
".8 c #fcfefc",
"#` c #6cea1c",
"#. c #648e4c",
"## c #8c8a8c",
"#a c #647654",
"#b c #b4b6b4",
"#c c #345e0c",
"#d c #1c2a04",
"#e c #447e2c",
"#f c #64b234",
"#g c #cccecc",
"#h c #cccacc",
"#i c #747274",
"#j c #6cca2c",
"#k c #749a5c",
"#l c #5c8244",
"#m c #343634",
"#n c #e4e2e4",
"#o c #84a674",
"#p c #74da2c",
"#q c #343234",
"#r c #5c7a4c",
"#s c #5c5a5c",
"#t c #142204",
"#u c #64d614",
"#v c #4caa14",
"#w c #141214",
"#x c #346a14",
"#y c #5caa2c",
"#z c #2c5a14",
"#A c #f4f6fc",
"#B c #447e1c",
"#C c #0c1604",
"#D c #547244",
"#E c #acc6a4",
"#F c #3c8e0c",
"#G c #6cde24",
"#H c #4ca61c",
"#I c #84fe1c",
"#J c #74ee1c",
"#K c #54be14",
"#L c #5ca62c",
"#M c #eceaec",
"#N c #448e14",
"#O c #64ce1c",
"#P c #74f624",
"#Q c #cce6ac",
"#R c #0c0a04",
"#S c #84c65c",
"#T c #74fe24",
"#U c #3c7e1c",
"#V c #94ae84",
"#W c #448624",
"#X c #649244",
"#Y c #64b63c",
"#Z c #5c864c",
"#0 c #54c614",
"#1 c #2c660c",
"#2 c #ecf2ec",
"#3 c #7cc654",
"#4 c #4cb614",
"#5 c #8cf634",
"#6 c #dcdedc",
"#7 c #1c0604",
"#8 c #dcead4",
"a` c #c4c6c4",
"a. c #54ce14",
"a# c #c4e6ac",
"aa c #444644",
"ab c #3c662c",
"ac c #6c6e6c",
"ad c #347e0c",
"ae c #7cf61c",
"af c #140604",
"ag c #2c6e0c",
"ah c #bcbabc",
"ai c #84fe2c",
"aj c #5cce14",
"ak c #acaeac",
"al c #6ce61c",
"am c #6cee1c",
"an c #8c8e8c",
"ao c #1c2e04",
"ap c #ccd2cc",
"aq c #4cae14",
"ar c #141614",
"as c #44a214",
"at c #c4d6bc",
"au c #3c9214",
"av c #6cb644",
"aw c #6cfa24",
"ax c #fcfafc",
"ay c #3c9a14",
"az c #3c8a14",
"aA c #7cfa24",
"aB c #94d274",
"aC c #4ca224",
"aD c #f4f6f4",
"aE c #74ea24",
"aF c #54ba1c",
"aG c #64da1c",
"aH c #449a14",
"aI c #448a1c",
"aJ c #74f224",
"aK c #dce2dc",
"aL c #44a614",
"aM c #f4f2f4",
"aN c #e4e6e4",
"aO c #7cfe24",
"aP c #94d674",
"aQ c #64de1c",
"aR c #449e14",
"aS c #94aa8c",
"aT c #54a62c",
"aU c #24262c",
"aV c #b4b6bc",
"aW c #749a64",
"aX c #5caa34",
"aY c #84fe24",
"aZ c #5ca634",
"a0 c #cce6b4",
"a1 c #0c0a0c",
"a2 c #000000",
"a3 c #000000",
"a4 c #000000",
"a5 c #000000",
"a6 c #000000",
"a7 c #000000",
"a8 c #000000",
/* pixels */
".8.8.8.8.8.8.8.8.8.8.8.8#g#b.8.8.8.8.8.8.8.8.8.8.8.8.8.8.8.8.8.8",
".8.8.8.8.8.8.8.8.8.8.8.8#w`Ra`.8.8.8.8.8`yaa.8.8.8.8.8.8.8.8.8.8",
".8.8.8.8.8.8.8.8.8.8.8.8.8.max.8.8.8.8`ya1#q.8.8.8.8.8.8.8.8.8.8",
".8.8.8.8.8.8.8.8.8.8.8.8.8.8#wax.8.8`UaD.8.8.8.8.8.8.8.8.8.8.8.8",
".8.8.8.8.8.8.8.8.8.8.8axax.8.lac`Y`Ua1aDax.8.8.8.8.8.8.8.8.8.8.8",
".8.8.8.8.8.8.8.8.8`W#n.l.Z.Zar#w#war.l.Z.Z`IaD.8.8.8.8.8.8.8.8.8",
".8.8.8.8.8.8.8axax.Z.ZanaD#M#M#MaN#M#MaD.V.l.Z#Max.8.8.8.8.8.8.8",
".8.8.8.8.8.8aD.m`y.K#n#6#n#6#6#naK#n#6#n#6#6an`y.ZaM.8.8.8.8.8.8",
".8.8.8.8.8ax#i`y.6.w.w.w.w`q.w`q.w`q.w.w`q.w.w#s`y#m`W.8.8.8.8.8",
".8.8.8.8ax.V.6`Ua`#ha`#h#h#ha`#h#ha`#ha`#h#h`Ia`.t.6#s`C.8.8.8.8",
".8.8.8ax#A.E.maV#b.p#b.p#bah#b.paVah#bah#b.p#b#b#b.maU`j`W.8.8.8",
".8.8.8.x.j#l#.`L`La##Qa#a0`La0`La0a#a0`La0a#.na0`L`T#Z#D`2.8.8.8",
".8.8axat.u..ag`XaB`XaP`XaPaB.L.4aPaB.L`XaPaB.LaB`X.M#R#d.Jax.8.8",
".8.8aM#z#1`w`Z`k`k#3`k`k#3`k`k.y.y#3`k#3`k#3`k`k`k#x.`.`#t#2.8.8",
".8.8#2`hag`Z`.#Y#fav#Y`s#Y#Yav.2av#Y`s#Yav#Yav#Yav#z.`.`.`#2ax.8",
".8ax.k..agad.g#W#yaTaTaT#L#y.3aZ#y#y`P`P#y.3aTaT`J.U.`.`.``#aD.8",
".8axaS..`Z#B.s.`.7`0`0`0`0`0`0`t`t#H`0.3`0`0`0.f`r#N.`.`.`#aaD.8",
".8aD`M`wad.s.`.`.`ao`e`eaL`e.v`t`e`e#v`e`e`eaR.RaH.1#c.`.s`VaM.8",
".8aM`n`waz.``v.``v.`#4.0.0.0.0`NaF.0#4.0#4`l`l#v`Gas.faz`ZabaM.8",
".8aD`5adau.``v`v`v.`.G.G.G.G.G.W#O.G.G.G.G.W#K.a.0aq.R`rad#raM.8",
".8aD.Yad`r.`.``v`v#7.baG.baGaG`O#GaG.Q.b.b#u`p.W#K#4aL`r.M.TaD.8",
".8ax.Fad.1`c`v`v.5`c#`#Jam#JamaE`1.Nam#J`maf#7#C#j#K#v`r`.#8aD.8",
".8axaN#U.1`l`8#C.P#Jae`Q`Q`Q`Q.q.o`Q`Q`i.5.5.5`v`z`a#v`r`Z#nax.8",
".8.8aM`uau`l`K.bal`1`Q#T.H.H.H.qaO.H#5.5.5.5.5`vaf.a.v`J`b`j.8.8",
".8.8aD#6#Waq.WaG.X#J`Q`Q#IaAaYaiaY`4`B.C.5.5.5.5#R`l.R#U.kaM.8.8",
".8.8.8#M.k`e#Kaj.Q#``1`Q`Q#I.HaiaY.H`o.5.5.5`v`v`3`G#F`faN.8.8.8",
".8.8.8axaN`Eaq.#.7`A.iae`QaY#IaiaY`Q`4ao`v.5af#f`l`H.z#naD.8.8.8",
".8.8.8.8aD#n#Xaf`v.5`z#P`Q.HaYaOai`4ae#JaE#p.W`l`e#e`qaDax.8.8.8",
".8.8.8.8.8`j.w.I`v.5.5.B.DaA`Q.qaY`Q#P#J.X`p`a.v.U.w.x`W.8.8.8.8",
".8.8.8.8.8axaM`qap.`.5`z#P.D.D.o#T#P`gam`da.aR`u.w`j`W.8.8.8.8.8",
".8.8.8.8.8.8.8.x.e.w`S.c`K`F`g.Saw`g`d#0`0#oapaNaM.8.8.8.8.8.8.8",
".8.8.8.8.8.8.8.8axaMaN`qapat#V#k#k.r`7ap.w#naMax.8.8.8.8.8.8.8.8"
};
