/* XPM */
static const char *iSaveChat_xpm[] = {
/* width height num_colors chars_per_pixel */
"    32    32      256            2",
/* colors */
"`` c #8c4224",
"`. c #fca604",
"`# c #fcd61c",
"`a c #bca684",
"`b c #fcda94",
"`c c #fcba1c",
"`d c #fcea94",
"`e c #9c7a3c",
"`f c #fcd25c",
"`g c #f4ba4c",
"`h c #e4a644",
"`i c #fcba6c",
"`j c #e4dad4",
"`k c #fcea6c",
"`l c #d47e34",
"`m c #fcc644",
"`n c #d4cabc",
"`o c #f4eadc",
"`p c #ac4e24",
"`q c #f4d68c",
"`r c #fcb204",
"`s c #fcc66c",
"`t c #f4ca54",
"`u c #fcde34",
"`v c #fcde94",
"`w c #f4b24c",
"`x c #fcfad4",
"`y c #b46634",
"`z c #9c8a6c",
"`A c #ece2d4",
"`B c #cc8a44",
"`C c #f4a62c",
"`D c #fcda5c",
"`E c #fcd23c",
"`F c #fcc604",
"`G c #f4be5c",
"`H c #fce694",
"`I c #fcda7c",
"`J c #fcce54",
"`K c #c4661c",
"`L c #ec9e4c",
"`M c #fca27c",
"`N c #fceab4",
"`O c #fcba8c",
"`P c #7c6644",
"`Q c #fcc2a4",
"`R c #ecb224",
"`S c #fcd26c",
"`T c #fca23c",
"`U c #fcc694",
"`V c #fcc654",
"`W c #fcdea4",
"`X c #fcf6ec",
"`Y c #fce2bc",
"`Z c #ec8e14",
"`0 c #fcda44",
"`1 c #fcae14",
"`2 c #ac723c",
"`3 c #fcc23c",
"`4 c #f4f2ec",
"`5 c #fcae54",
"`6 c #bc8a3c",
"`7 c #fcc61c",
"`8 c #9c6234",
".` c #fcf694",
".. c #fcc26c",
".# c #f4dacc",
".a c #fcb214",
".b c #fcce6c",
".c c #fcae2c",
".d c #fcd24c",
".e c #fcda8c",
".f c #c46a4c",
".g c #f4ae6c",
".h c #fccaa4",
".i c #fca25c",
".j c #fcc664",
".k c #fcfef4",
".l c #bc8a6c",
".m c #f4aa14",
".n c #fcba2c",
".o c #fceaa4",
".p c #fcba3c",
".q c #fce284",
".r c #fcce4c",
".s c #fcd27c",
".t c #ac6a44",
".u c #fca624",
".v c #fcda6c",
".w c #f4c25c",
".x c #d4662c",
".y c #fce2d4",
".z c #f49634",
".A c #ac866c",
".B c #fcd62c",
".C c #c4b6a4",
".D c #fcd65c",
".E c #fcba7c",
".F c #fcc64c",
".G c #fceecc",
".H c #ac5a1c",
".I c #fce294",
".J c #ecb664",
".K c #fce6a4",
".L c #fcde7c",
".M c #fcf2bc",
".N c #f4c284",
".O c #fcd66c",
".P c #fcca54",
".Q c #fce2a4",
".R c #fcfafc",
".S c #fcc62c",
".T c #946a44",
".U c #fcdecc",
".V c #fcb614",
".W c #fcd64c",
".X c #fcb674",
".Y c #f4cebc",
".Z c #b4967c",
".0 c #fcaa14",
".1 c #fcea84",
".2 c #fcd68c",
".3 c #fca634",
".4 c #c4823c",
".5 c #bcae94",
".6 c #f4d2b4",
".7 c #f47214",
".8 c #dccab4",
"#` c #fcca7c",
"#. c #9c5634",
"## c #d49a44",
"#a c #f49e7c",
"#b c #8c7e64",
"#c c #bc866c",
"#d c #8c6634",
"#e c #bc5a24",
"#f c #fcde54",
"#g c #c4963c",
"#h c #fcb624",
"#i c #a46e4c",
"#j c #e47e3c",
"#k c #fc9e54",
"#l c #fc8e18",
"#m c #b49e84",
"#n c #ecae5c",
"#o c #f4aa44",
"#p c #fcaa6c",
"#q c #fcdab4",
"#r c #bc6228",
"#s c #fcd6bc",
"#t c #fcb278",
"#u c #7c6e4c",
"#v c #fcaa5c",
"#w c #d46e34",
"#x c #e4a65c",
"#y c #fce654",
"#z c #fcc254",
"#A c #f4e2d4",
"#B c #fcba64",
"#C c #cc6a1c",
"#D c #fceee4",
"#E c #bc9a74",
"#F c #c48264",
"#G c #f4b264",
"#H c #ecded4",
"#I c #fcf6e4",
"#J c #fcca14",
"#K c #fceac4",
"#L c #b46e44",
"#M c #dccec4",
"#N c #bc5e34",
"#O c #fcc28c",
"#P c #9c6a4c",
"#Q c #fcce64",
"#R c #fcda54",
"#S c #fcce7c",
"#T c #fceedc",
"#U c #fcb634",
"#V c #fcc264",
"#W c #fcca3c",
"#X c #fcb60c",
"#Y c #ece6dc",
"#Z c #fcd644",
"#0 c #fcc69c",
"#1 c #fcfaec",
"#2 c #fce6c4",
"#3 c #fcb250",
"#4 c #fcca20",
"#5 c #fccea8",
"#6 c #fca654",
"#7 c #fcbe34",
"#8 c #fceeac",
"a` c #fcbe3f",
"a. c #fce68c",
"a# c #fcd682",
"aa c #fcde74",
"ab c #fce6cc",
"ac c #f49a2c",
"ad c #fcda34",
"ae c #d49e3c",
"af c #fcdac4",
"ag c #f4be4c",
"ah c #fcbe6c",
"ai c #f4eedc",
"aj c #fceeb4",
"ak c #fcca94",
"al c #fcde8c",
"am c #fcca64",
"an c #fcaa24",
"ao c #fcbe7c",
"ap c #fcca4c",
"aq c #fcaa34",
"ar c #fcf2e4",
"as c #fcba24",
"at c #fcea9c",
"au c #fcd264",
"av c #fcc674",
"aw c #f4ca5c",
"ax c #fcde9c",
"ay c #fcda64",
"az c #fcc60c",
"aA c #fce69c",
"aB c #fcda84",
"aC c #fcce5c",
"aD c #c46624",
"aE c #fcba94",
"aF c #fcd274",
"aG c #fca244",
"aH c #fcc65c",
"aI c #fcdeac",
"aJ c #fcf6f4",
"aK c #fce2c4",
"aL c #fcae1c",
"aM c #fcc244",
"aN c #fcc274",
"aO c #fcb21c",
"aP c #fcce74",
"aQ c #fcd254",
"aR c #fcfefc",
"aS c #f4aa1c",
"aT c #fcba34",
"aU c #fceaac",
"aV c #fce28c",
"aW c #fcda74",
"aX c #fcd634",
"aY c #fcd664",
"aZ c #fce29c",
"a0 c #fce6ac",
"a1 c #fcde84",
"a2 c #fcd674",
"a3 c #fcca5c",
"a4 c #fce2ac",
"a5 c #fcb61c",
"a6 c #fcd654",
"a7 c #fcaa1c",
"a8 c #bcae9c",
/* pixels */
"aRaRaRaRaRaRaRaRaRaRaRaRaR.yabaRaRaRaRaRaRaRaRaRaRaRaRaRaRaRaRaR",
"aRaRaRaRaRaRaRaRaRaRaRaR.tar#T.AaRaRaRaRaRaRaRaRaRaRaRaRaRaRaRaR",
"aRaRaRaRaRaRaRaRaRaRaRaRabar#D#0.kaRaRaRaRaRaRaRaRaRaRaRaRaRaRaR",
"aRaRaRaRaRaRaRaRaRaRaR#1#2.G#K`Y#PaRaRaRaRaRaRaRaRaRaR#c`Q.kaRaR",
"aRaRaRaRaRaRaRaRaRaRaR#EaIa0aI`W#kaRaRaRaRaRaRaRaRaR``.y.i.AaRaR",
"aRaRaRaRaRaRaRaRaRaRaR`8`b`b.2.2`s.laRaRaRaRaRaRaR.f.U`iac.#aRaR",
"aRaRaRaRaRaRaRaRaRaRaR.H`S.u.m`1.0.7aRaRaRaRaR#1`M#sav`.#kaRaRaR",
"aRaRaRaRaRaRaRaRaRaRaR#Ca7`raLaL.a#lafaRaRaR#FaE.h.s#X`R.ZaRaRaR",
"aRaRaRaRaRaRaRaRaRaRaR`KaLaOa5#h#ha7#CaRaR`p#t`UaB#X`F#3aRaRaRaR",
"aRaRaRaRaRaRaRaRaRaRaR`l#h.n#haT.n.n#l`y#w#pao.s`c`7`E`aaRaRaRaR",
"aRaRaRaRaRaRaRaRaRaR#sahaT#7a``3`3aM.p.3#BaNam.n`7`#`haRaRaRaRaR",
"aRaRaRaRaR#I#L#e.x#j.iaq`3`m`m.F#W.Fap#za`a`#7.S.B`k.8aRaRaRaRaR",
"aRaRaR#LaEak#O#t#vaG.3a``map`JaCaCaC`J`JapaM`m`E`E##aRaRaRaRaRaR",
"aRaR#r`U...u.uanan#Ua`.F.P`faYaY.O.OauaCa3`J.r#Z`k#AaRaRaRaRaRaR",
"aRaRah.0.V.V#hasaTaM.F.Pau.OaW.L.LaaaWa2`Saua6#Z`6aRaRaRaRaRaRaR",
"aRaR`Zaz#J#4#4.S#W#WaCau.O.L.L.q.qaVa1.La2.v`D#R.GaRaRaRaRaRaRaR",
"aRaR#Hae#y`Dadad`0aQ`f.Oaaa1a.`d`d`Ha.al`Ia2.d#g.RaRaRaRaRaRaRaR",
"aRaRaRaR`A`z`e.r.`#f`DaW.La.aA.o.o.oaA.Ia1.ba`#AaRaRaRaRaRaRaRaR",
"aRaRaRaRaRaRaRaR.5aw.DaWa1.I.o#8aU#8.oaZ.e...zaRaRaRaRaRaRaRaRaR",
"aRaRaRaRaRaRaRaRaRai#W`Sal`H.oaU#8aja0aZ.eah`O.kaRaRaRaRaRaRaRaR",
"aRaRaRaRaRaRaRaRaRaR#z.ba1.I.Ka0aU`Na0.Q`bah`Y#NaRaRaRaRaRaRaRaR",
"aRaRaRaRaRaRaRaRaRaR.J.jaB`v.QaUaUaU.KaZ`b#S.g#5#a.YaRaRaRaRaRaR",
"aRaRaRaRaRaRaRaRaRaR.N.ja#.eax.Q.KaZal`vala#`s`5#t.h#.aRaRaRaRaR",
"aRaRaRaRaRaRaRaRaRaR`Nam.sa#`v.I.2`xaj.M`vaa.O#Q`V#o.E#1aRaRaRaR",
"aRaRaRaRaRaRaRaRaR.6#8am#`a2a1`I#n.Z`Aa8#d#o.1.P.rap`S#DaRaRaRaR",
"aRaRaRaRaRaRaRaRaR`2#S`VamaF.v`S#AaRaRaRaRaR`n#b`P#u#MaRaRaRaRaR",
"aRaRaRaRaRaRaRaRaR.4`G#z`Vau`V.TaRaRaRaRaRaRaRaRaRaRaRaRaRaRaRaR",
"aRaRaRaRaRaRaRaRaR#xaga`.Pap`BaRaRaRaRaRaRaRaRaRaRaRaRaRaRaRaRaR",
"aRaRaRaRaRaRaRaRaR#Ga`a`a`#3araRaRaRaRaRaRaRaRaRaRaRaRaRaRaRaRaR",
"aRaRaRaRaRaRaRaRaRaG.FaTaH#HaRaRaRaRaRaRaRaRaRaRaRaRaRaRaRaRaRaR",
"aRaRaRaRaRaRaRaRaR#r`T#3`jaRaRaRaRaRaRaRaRaRaRaRaRaRaRaRaRaRaRaR",
"aRaRaRaRaRaRaRaRaR.R.CaJaRaRaRaRaRaRaRaRaRaRaRaRaRaRaRaRaRaRaRaR"
};
