/* XPM */
static const char *iSeeIP_xpm[] = {
/* width height num_colors chars_per_pixel */
"    32    32      256            2",
/* colors */
"`` c #040204",
"`. c #848284",
"`# c #444244",
"`a c #c4c2c4",
"`b c #7c0204",
"`c c #e4e2e4",
"`d c #8c3234",
"`e c #9c0204",
"`f c #a4a29c",
"`g c #8c4644",
"`h c #646264",
"`i c #e4cecc",
"`j c #242224",
"`k c #d4d2d4",
"`l c #840204",
"`m c #f4f2f4",
"`n c #d4827c",
"`o c #545254",
"`p c #b40204",
"`q c #d4a6ac",
"`r c #b4b2b4",
"`s c #747274",
"`t c #141214",
"`u c #949294",
"`v c #d4c2c4",
"`w c #343234",
"`x c #8c1a1c",
"`y c #9c1214",
"`z c #4c4a4c",
"`A c #f4eeec",
"`B c #ac0204",
"`C c #840a0c",
"`D c #fcfafc",
"`E c #cccacc",
"`F c #6c0a0c",
"`G c #a40a0c",
"`H c #acaaac",
"`I c #7c6a6c",
"`J c #e4dedc",
"`K c #dcdadc",
"`L c #0c0a0c",
"`M c #8c8a8c",
"`N c #eceaec",
"`O c #843a3c",
"`P c #a40204",
"`Q c #6c6a6c",
"`R c #2c2a2c",
"`S c #940204",
"`T c #fcf6f4",
"`U c #5c5a5c",
"`V c #bcbabc",
"`W c #7c7a7c",
"`X c #1c1a1c",
"`Y c #9c9a9c",
"`Z c #3c3a3c",
"`0 c #544244",
"`1 c #c4c6c4",
"`2 c #a4a6a4",
"`3 c #f4f6f4",
"`4 c #cc9ea4",
"`5 c #bc0204",
"`6 c #dcc2c4",
"`7 c #544e4c",
"`8 c #7c0e0c",
".` c #fcdedc",
".. c #dcdedc",
".# c #943a3c",
".a c #040604",
".b c #848684",
".c c #444644",
".d c #7c0604",
".e c #e4e6e4",
".f c #9c0604",
".g c #a4a2a4",
".h c #b4767c",
".i c #646664",
".j c #e4d2d4",
".k c #242624",
".l c #d4d6d4",
".m c #8c0604",
".n c #d48a8c",
".o c #545654",
".p c #b40604",
".q c #b4b6b4",
".r c #747674",
".s c #141614",
".t c #949694",
".u c #343634",
".v c #941a1c",
".w c #4c4e4c",
".x c #fceeec",
".y c #840e0c",
".z c #fcfefc",
".A c #cccecc",
".B c #740a0c",
".C c #acaeac",
".D c #0c0e0c",
".E c #8c8e8c",
".F c #eceeec",
".G c #843e3c",
".H c #a40604",
".I c #6c6e6c",
".J c #2c2e2c",
".K c #940604",
".L c #5c5e5c",
".M c #bcbebc",
".N c #7c7e7c",
".O c #1c1e1c",
".P c #9c9e9c",
".Q c #3c3e3c",
".R c #c4c6cc",
".S c #f4f6fc",
".T c #dcc6c4",
".U c #fcdee4",
".V c #dcdee4",
".W c #000000",
".X c #000000",
".Y c #000000",
".Z c #000000",
".0 c #000000",
".1 c #000000",
".2 c #000000",
".3 c #000000",
".4 c #000000",
".5 c #000000",
".6 c #000000",
".7 c #000000",
".8 c #000000",
"#` c #000000",
"#. c #000000",
"## c #000000",
"#a c #000000",
"#b c #000000",
"#c c #000000",
"#d c #000000",
"#e c #000000",
"#f c #000000",
"#g c #000000",
"#h c #000000",
"#i c #000000",
"#j c #000000",
"#k c #000000",
"#l c #000000",
"#m c #000000",
"#n c #000000",
"#o c #000000",
"#p c #000000",
"#q c #000000",
"#r c #000000",
"#s c #000000",
"#t c #000000",
"#u c #000000",
"#v c #000000",
"#w c #000000",
"#x c #000000",
"#y c #000000",
"#z c #000000",
"#A c #000000",
"#B c #000000",
"#C c #000000",
"#D c #000000",
"#E c #000000",
"#F c #000000",
"#G c #000000",
"#H c #000000",
"#I c #000000",
"#J c #000000",
"#K c #000000",
"#L c #000000",
"#M c #000000",
"#N c #000000",
"#O c #000000",
"#P c #000000",
"#Q c #000000",
"#R c #000000",
"#S c #000000",
"#T c #000000",
"#U c #000000",
"#V c #000000",
"#W c #000000",
"#X c #000000",
"#Y c #000000",
"#Z c #000000",
"#0 c #000000",
"#1 c #000000",
"#2 c #000000",
"#3 c #000000",
"#4 c #000000",
"#5 c #000000",
"#6 c #000000",
"#7 c #000000",
"#8 c #000000",
"a` c #000000",
"a. c #000000",
"a# c #000000",
"aa c #000000",
"ab c #000000",
"ac c #000000",
"ad c #000000",
"ae c #000000",
"af c #000000",
"ag c #000000",
"ah c #000000",
"ai c #000000",
"aj c #000000",
"ak c #000000",
"al c #000000",
"am c #000000",
"an c #000000",
"ao c #000000",
"ap c #000000",
"aq c #000000",
"ar c #000000",
"as c #000000",
"at c #000000",
"au c #000000",
"av c #000000",
"aw c #000000",
"ax c #000000",
"ay c #000000",
"az c #000000",
"aA c #000000",
"aB c #000000",
"aC c #000000",
"aD c #000000",
"aE c #000000",
"aF c #000000",
"aG c #000000",
"aH c #000000",
"aI c #000000",
"aJ c #000000",
"aK c #000000",
"aL c #000000",
"aM c #000000",
"aN c #000000",
"aO c #000000",
"aP c #000000",
"aQ c #000000",
"aR c #000000",
"aS c #000000",
"aT c #000000",
"aU c #000000",
"aV c #000000",
"aW c #000000",
"aX c #000000",
"aY c #000000",
"aZ c #000000",
"a0 c #000000",
"a1 c #000000",
"a2 c #000000",
"a3 c #000000",
"a4 c #000000",
"a5 c #000000",
"a6 c #000000",
"a7 c #000000",
"a8 c #000000",
/* pixels */
".z.z.z.z.z.z.z.z.z.z.z.z.z.z.z.z.z.z.z.z.z.z.z.z.z.z.z.z.z.z.z.z",
".z.z.z.z.z.z.z.z.z.z.z.z.z`N.C`Y`M.g.M.z.z.z.z.z.z.z.z.z.z.z.z.z",
".z.z.z.z.z.z.z.z.z`D`H`..C`k.l`k`k`a.C`u`W`s`m.z.z.z.z.z.z.z.z.z",
".z.z.z.z.z.z.z`D.C`M.z.z`D`3`K.q`2.g.C`a`E.M.E`Q`k.z.z.z.z.z.z.z",
".z.z.z.z.z.z`D.b`a`D.z`T`k.l..`K.l.l.l`k`E.P`1.g.I`1`D.z.z.z.z.z",
".z.z.z.z.z`m`.`A.F`J.l.F`E`Y`j`w.c`Z`j`M`1.l.A.t`a`Y`H`D.z.z.z.z",
".z.z.z`D`m.N`c.V`E.F.t.k`o.E`V`E.h`E.M.g`..J`r`k`V.M`V.q`3.z.z.z",
".z.z.z`A.N.l.A.l.l`t.i.M`c`m`D`D`y`3`D`3.e`E.E`o.l.M`a`1`V`D.z.z",
".z.z.S.g`M`k.M`k.s`s.l`T.z.z.z`T`G`D.z.z.z`m`K.g`j.l.C`J`a.F`D.z",
".z`D`N`s.M.C.l`X`..F.z.z.z.z.z.x.p.x.z.z.z.z.z.F.A`z`k.r.A.M`3.z",
".z`3.t`2`E`k`U.E`m.z.z`D.z.z.z.U`5.`.z.z.z.z`T.z.S`E.E`V.b`u`N`D",
"`D`N.i`E.P`k`o.F.z.z`k.z.z.z.z.n`5`n.z.z.z`..F.z.z`3`U.A`u.t`a`m",
"`D..`s`1`V.r`Y.z.z.z.z.z`V.z.z.v`5.v.z.z`A.z.z.z.z`D...M.q`.`o.F",
"`3`a.E.r`k`R...z.z.z.z.z.z`V.z.f`p.H.z.w.z.z.z.z`D.z`T.Q`k.L`w.e",
"`m.b.P`U`E`h`3.z.z.z.z.z.z.z.g`p`p`p`7.z.z.z`D`D`D`D.S.w`E`w.c`K",
".F`h.g`#.A.b.z.z.z.z.z.z.z.z.#`P.f`B`d`D.z`D.z`D`D`3`D`V`E.O`U.l",
"`N`o.g.u`E`Y.z.z.z.z.z.z.z.z`P`C`v.m`P`D`D`D`D`3`3`D`m`c.A.s.L`k",
"`N.i.t`w`E.t.z.z.z.z.z.z.z`D.y`e`F`b`C`3`D`3`3`T`3`m.F.M`E.s`z`k",
".F`M.N.J`E`W.z.z.z.z.z.z.z.z`0`P`e`e`I`T`3`D`3`m`m`m`m.b`k`j.k`k",
"`m`V`Q.u`1`o`3.z.z.z.z.z.z`z`A.K`e`S.F`Y`3`m`m.F`m.F.F.b.l`z`t..",
"`3`1`o`.`Y.N`c.z.z.z.z`D`N`D`3`8`S.d`m`3.P`m`m.F`m.F.F`V.P.w.I.e",
".z`K`w.N`R`1.t.z.z.z`E`D`D.S.S`g`S`O`m`m`3`m.F.F.F.F.M`N.J.o.q`m",
".z`N`2.i.N`a.E`c`D`m`z`U`3`D`3`q`S`4.F`m.F.J.O.F`N`N`V.I`z`L`k.S",
".z`D.A`w`h.s`1`..e`D`3`3`T`3`3.T`l`6`m.F`A.F.b`N`N.g`k.J`o`2.e.z",
".z.z.e`M`#`Q`W`a.N`m`3.S`3`m`m.j.d`i.F.F`N`N`N.e`a`3.c`o.a`1`3.z",
".z.z`T.A.r.o.L`M`a.P`N`m`m`m.F`J.B`K.F`N.e`N.V`H`D.w.w.a.C`N`D.z",
".z.z.z`m`k`h.o.o`Z`a.q.C...F.F`N.G.e`N.e`c.C.A.M`Z.w.D`r.V`D.z.z",
".z.z.z.z`3.A.I`z`o.J.I`a`a.q`r.M`V`V`H`V.F.A.w`#.w.a.C`c`D.z.z.z",
".z.z.z.z.z`A`a.I`R.o.w`X`h.q`1`E`1`E.A`2`U`j`z.w```H..`T.z.z.z.z",
".z.z.z.z.z.z`m.l`r`h.J`o`o`z`#`Z`Z.Q`#`z`7`z``.t.M.e`D.z.z.z.z.z",
".z.z.z.z.z.z.z`D.F.l`r.b.O.D.J`z.w.Q`X``.o.P`1.e`3.z.z.z.z.z.z.z",
".z.z.z.z.z.z.z.z.z.z`m`c.l`1`V.C.C`r`V.A`K`N`3`D.z.z.z.z.z.z.z.z"
};
